<?xml version="1.0" standalone="no"?>
<!DOCTYPE svg PUBLIC "-//W3C//DTD SVG 20010904//EN"
 "http://www.w3.org/TR/2001/REC-SVG-20010904/DTD/svg10.dtd">
<svg version="1.0" xmlns="http://www.w3.org/2000/svg"
 width="464.000000pt" height="464.000000pt" viewBox="0 0 464.000000 464.000000"
 preserveAspectRatio="xMidYMid meet">
<metadata>
Created by potrace 1.14, written by Peter Selinger 2001-2017
</metadata>
<g transform="translate(0.000000,464.000000) scale(0.100000,-0.100000)"
fill="#000000" stroke="none">
<path d="M2149 4476 c-2 -2 -35 -6 -72 -10 -360 -31 -794 -211 -1102 -455 -68
-54 -256 -236 -305 -296 -223 -270 -395 -614 -454 -905 -47 -232 -51 -275 -51
-495 0 -171 6 -256 25 -356 6 -30 13 -67 16 -84 33 -193 153 -491 277 -692
107 -172 290 -385 442 -513 170 -144 401 -281 610 -363 84 -33 278 -91 335
-101 28 -5 127 -22 180 -31 57 -10 409 -14 485 -5 102 12 158 21 225 35 14 3
34 7 45 9 118 23 344 105 487 177 282 142 567 379 748 624 25 33 48 62 53 63
4 2 7 10 7 17 0 7 4 15 8 17 9 3 95 146 135 223 113 219 202 518 225 748 9 97
9 395 -1 482 -10 94 -54 309 -71 350 -8 18 -12 36 -9 39 3 3 1 11 -4 18 -6 7
-14 27 -18 43 -5 17 -9 32 -10 35 -1 3 -8 21 -17 41 -9 20 -19 46 -23 57 -14
45 -106 224 -160 312 -108 174 -291 385 -450 519 -139 116 -355 250 -520 320
-179 77 -421 145 -594 167 -48 6 -437 15 -442 10z"/>
</g>
</svg>
